<?xml version="1.0" encoding="UTF-8"?>
<svg width="125px" height="40px" viewBox="0 0 125 40" version="1.1" xmlns="http://www.w3.org/2000/svg" xmlns:xlink="http://www.w3.org/1999/xlink">
    <!-- Generator: Sketch 53.2 (72643) - https://sketchapp.com -->
    <title>icn-post</title>
    <desc>Created with Sketch.</desc>
    <g id="Page-1" stroke="none" stroke-width="1" fill="none" fill-rule="evenodd">
        <g id="Artboard" transform="translate(-143.000000, -174.000000)">
            <g id="icn-post" transform="translate(143.000000, 174.000000)">
                <rect id="Rectangle" fill="#33AAFF" x="0" y="0" width="125" height="40" rx="20"></rect>
                <path d="M21.90625,20.2744141 C22.0247402,20.3473311 22.14095,20.4794912 22.2548828,20.6708984 C22.2731121,20.6982423 22.2890624,20.7210286 22.3027344,20.7392578 L23.4169922,22.5029297 L23.6289062,22.5029297 C23.8932305,22.5029297 24.09261,22.5644525 24.2270508,22.6875 C24.3614916,22.8105475 24.4287109,22.995116 24.4287109,23.2412109 C24.4287109,23.5100925 24.3614916,23.7037754 24.2270508,23.8222656 C24.09261,23.9407558 23.8704443,24 23.5605469,24 L22.7197266,24 C22.4098292,24 22.1682951,23.8655612 21.9951172,23.5966797 L21.9746094,23.5830078 L20.2998047,21.0058594 C20.2360023,20.9055985 20.1630863,20.8292646 20.0810547,20.7768555 C19.999023,20.7244464 19.9124354,20.6982422 19.8212891,20.6982422 L19.1787109,20.6982422 L19.1787109,22.5029297 L19.2880859,22.5029297 C19.5341809,22.5029297 19.7198887,22.5655918 19.8452148,22.690918 C19.970541,22.8162441 20.0332031,22.9996733 20.0332031,23.2412109 C20.0332031,23.5100925 19.9682624,23.7037754 19.8383789,23.8222656 C19.7084954,23.9407558 19.4886083,24 19.1787109,24 L17.4150391,24 C17.109699,24 16.8909512,23.9407558 16.7587891,23.8222656 C16.6266269,23.7037754 16.5605469,23.5100925 16.5605469,23.2412109 C16.5605469,22.9996733 16.623209,22.8162441 16.7485352,22.690918 C16.8738613,22.5655918 17.0572905,22.5029297 17.2988281,22.5029297 L17.4150391,22.5029297 L17.4150391,17.4033203 L17.2988281,17.4033203 C17.0618478,17.4033203 16.8795579,17.3383796 16.7519531,17.2084961 C16.6243483,17.0786126 16.5605469,16.8929049 16.5605469,16.6513672 C16.5605469,16.3870429 16.6277663,16.1944993 16.762207,16.0737305 C16.8966478,15.9529616 17.1142563,15.8925781 17.4150391,15.8925781 L20.5664062,15.8925781 C21.5325569,15.8925781 22.2639949,16.0805645 22.7607422,16.456543 C23.2574895,16.8325214 23.5058594,17.3873661 23.5058594,18.1210938 C23.5058594,18.631513 23.3680027,19.0735658 23.0922852,19.4472656 C22.8165676,19.8209654 22.4212265,20.0966788 21.90625,20.2744141 Z M19.0966797,17.3623047 L19.0966797,19.296875 L20.0195312,19.296875 C20.5891956,19.296875 20.9879546,19.2228198 21.2158203,19.074707 C21.443686,18.9265943 21.5576172,18.6793637 21.5576172,18.3330078 C21.5576172,17.9912092 21.4539398,17.7439786 21.246582,17.5913086 C21.0392242,17.4386386 20.7054059,17.3623047 20.2451172,17.3623047 L19.0966797,17.3623047 Z M26.7392578,21.2451172 C26.857748,21.7509791 27.0867496,22.1292305 27.4262695,22.3798828 C27.7657895,22.6305351 28.2180961,22.7558594 28.7832031,22.7558594 C29.3483101,22.7558594 29.9065728,22.6180027 30.4580078,22.3422852 C31.0094429,22.0665676 31.3421218,21.9287109 31.4560547,21.9287109 C31.6246753,21.9287109 31.762532,21.9913731 31.8696289,22.1166992 C31.9767258,22.2420254 32.0302734,22.4026683 32.0302734,22.5986328 C32.0302734,23.0270204 31.7135448,23.3961573 31.0800781,23.7060547 C30.4466114,24.0159521 29.6627651,24.1708984 28.7285156,24.1708984 C27.6256455,24.1708984 26.7290074,23.8610057 26.0385742,23.2412109 C25.3481411,22.6214162 25.0029297,21.8238981 25.0029297,20.8486328 C25.0029297,19.8779248 25.3481411,19.0826854 26.0385742,18.4628906 C26.7290074,17.8430959 27.6256455,17.5332031 28.7285156,17.5332031 C29.7128955,17.5332031 30.5286426,17.8237276 31.1757812,18.4047852 C31.8229199,18.9858427 32.1464844,19.6979125 32.1464844,20.5410156 C32.1464844,20.8098972 32.0815436,20.9944656 31.9516602,21.0947266 C31.8217767,21.1949875 31.5540385,21.2451172 31.1484375,21.2451172 L26.7392578,21.2451172 Z M30.4238281,20.1787109 C30.3463538,19.7548807 30.1469743,19.426759 29.8256836,19.1943359 C29.5043929,18.9619129 29.0862656,18.8457031 28.5712891,18.8457031 C28.0745418,18.8457031 27.6746434,18.9562163 27.371582,19.1772461 C27.0685206,19.3982758 26.857748,19.7320941 26.7392578,20.1787109 L30.4238281,20.1787109 Z M39.7890625,22.5029297 L39.8984375,22.5029297 C40.1445325,22.5029297 40.3325189,22.5678704 40.4624023,22.6977539 C40.5922858,22.8276374 40.6572266,23.0133451 40.6572266,23.2548828 C40.6572266,23.5192071 40.5900072,23.7094721 40.4555664,23.8256836 C40.3211256,23.9418951 40.0989599,24 39.7890625,24 L39.1464844,24 C38.9186187,24 38.7488612,23.9567062 38.637207,23.8701172 C38.5255528,23.7835282 38.4332686,23.6263032 38.3603516,23.3984375 C37.9820945,23.6490898 37.5810568,23.8404941 37.1572266,23.9726562 C36.7333963,24.1048184 36.3050152,24.1708984 35.8720703,24.1708984 C35.1383427,24.1708984 34.5618511,23.9886086 34.1425781,23.6240234 C33.7233052,23.2594383 33.5136719,22.7604198 33.5136719,22.1269531 C33.5136719,21.443356 33.784828,20.9124368 34.3271484,20.5341797 C34.8694689,20.1559226 35.630529,19.9667969 36.6103516,19.9667969 C36.8291027,19.9667969 37.0615222,19.97819 37.3076172,20.0009766 C37.5537122,20.0237631 37.8294256,20.0602211 38.1347656,20.1103516 L38.1347656,19.9804688 C38.1347656,19.5703104 38.0356455,19.2581391 37.8374023,19.0439453 C37.6391592,18.8297515 37.3463561,18.7226562 36.9589844,18.7226562 C36.6582016,18.7226562 36.2742536,18.8343088 35.8071289,19.0576172 C35.3400042,19.2809256 34.9970714,19.3925781 34.7783203,19.3925781 C34.5641265,19.3925781 34.3909512,19.329916 34.2587891,19.2045898 C34.1266269,19.0792637 34.0605469,18.9140635 34.0605469,18.7089844 C34.0605469,18.3398419 34.3305637,18.0470388 34.8706055,17.8305664 C35.4106472,17.614094 36.1455032,17.5058594 37.0751953,17.5058594 C38.0459033,17.5058594 38.7408833,17.6927065 39.1601562,18.0664062 C39.5794292,18.440106 39.7890625,19.0735632 39.7890625,19.9667969 L39.7890625,22.5029297 Z M38.1347656,21.1835938 C37.9068999,21.1334633 37.6972666,21.095866 37.5058594,21.0708008 C37.3144522,21.0457356 37.1367196,21.0332031 36.9726562,21.0332031 C36.4713517,21.0332031 36.0782892,21.1175122 35.793457,21.2861328 C35.5086249,21.4547534 35.3662109,21.687173 35.3662109,21.9833984 C35.3662109,22.2477227 35.4573559,22.4493808 35.6396484,22.5883789 C35.821941,22.727377 36.0839827,22.796875 36.4257812,22.796875 C36.7402359,22.796875 37.0364569,22.7513025 37.3144531,22.6601562 C37.5924493,22.56901 37.8658841,22.4277353 38.1347656,22.2363281 L38.1347656,21.1835938 Z M48.3134766,22.5029297 L48.4296875,22.5029297 C48.6757825,22.5029297 48.8603509,22.5655918 48.9833984,22.690918 C49.1064459,22.8162441 49.1679688,22.9996733 49.1679688,23.2412109 C49.1679688,23.5100925 49.103028,23.7037754 48.9731445,23.8222656 C48.8432611,23.9407558 48.6233739,24 48.3134766,24 L47.2675781,24 C47.135416,24 47.0340173,23.9737958 46.9633789,23.9213867 C46.8927405,23.8689776 46.8574219,23.797201 46.8574219,23.7060547 L46.8574219,23.2275391 C46.6341135,23.5328791 46.347007,23.766438 45.9960938,23.9282227 C45.6451805,24.0900073 45.2509788,24.1708984 44.8134766,24.1708984 C43.9202429,24.1708984 43.1728546,23.8667023 42.5712891,23.2583008 C41.9697236,22.6498993 41.6689453,21.8899785 41.6689453,20.9785156 C41.6689453,20.0305942 41.9731415,19.2444693 42.581543,18.6201172 C43.1899444,17.9957651 43.963537,17.6835938 44.9023438,17.6835938 C45.2259131,17.6835938 45.5415024,17.7371414 45.8491211,17.8442383 C46.1567398,17.9513352 46.4381498,18.1028636 46.6933594,18.2988281 L46.6933594,16.5693359 L45.7841797,16.5693359 C45.469725,16.5693359 45.2464199,16.5089524 45.1142578,16.3881836 C44.9820957,16.2674148 44.9160156,16.0748711 44.9160156,15.8105469 C44.9160156,15.5416653 44.9820957,15.3479824 45.1142578,15.2294922 C45.2464199,15.111002 45.469725,15.0517578 45.7841797,15.0517578 L47.9101562,15.0517578 C48.0651049,15.0517578 48.1710609,15.0836585 48.2280273,15.1474609 C48.2849938,15.2112633 48.3134766,15.3297517 48.3134766,15.5029297 L48.3134766,22.5029297 Z M45.1074219,19.1396484 C44.6608051,19.1396484 44.2905288,19.3071272 43.996582,19.6420898 C43.7026352,19.9770525 43.5556641,20.4020157 43.5556641,20.9169922 C43.5556641,21.4456407 43.7014959,21.8774397 43.9931641,22.2124023 C44.2848322,22.547365 44.6562477,22.7148438 45.1074219,22.7148438 C45.558596,22.7148438 45.9311509,22.5462256 46.2250977,22.2089844 C46.5190444,21.8717431 46.6660156,21.4410833 46.6660156,20.9169922 C46.6660156,20.406573 46.5179051,19.9827491 46.2216797,19.6455078 C45.9254542,19.3082665 45.5540387,19.1396484 45.1074219,19.1396484 Z M60.9052734,23.3574219 L60.9052734,25.2167969 L61.7734375,25.2167969 C62.0833349,25.2167969 62.3055006,25.2760411 62.4399414,25.3945312 C62.5743822,25.5130214 62.6416016,25.7067044 62.6416016,25.9755859 C62.6416016,26.2399102 62.5755215,26.4290359 62.4433594,26.5429688 C62.3111973,26.6569016 62.0878922,26.7138672 61.7734375,26.7138672 L58.875,26.7138672 C58.5605453,26.7138672 58.3395189,26.6580409 58.2119141,26.5463867 C58.0843093,26.4347325 58.0205078,26.2444675 58.0205078,25.9755859 C58.0205078,25.7067044 58.0854486,25.5130214 58.215332,25.3945312 C58.3452155,25.2760411 58.5651026,25.2167969 58.875,25.2167969 L59.2783203,25.2167969 L59.2783203,19.1806641 L59.1689453,19.1806641 C58.9274076,19.1806641 58.7428392,19.1168626 58.6152344,18.9892578 C58.4876296,18.861653 58.4238281,18.6748059 58.4238281,18.4287109 C58.4238281,18.1598294 58.4876296,17.968425 58.6152344,17.8544922 C58.7428392,17.7405593 58.9638656,17.6835938 59.2783203,17.6835938 L60.3310547,17.6835938 C60.4632168,17.6835938 60.5611976,17.7075193 60.625,17.7553711 C60.6888024,17.8032229 60.7207031,17.8727209 60.7207031,17.9638672 L60.7207031,18.4560547 C60.9531262,18.1461573 61.2345361,17.9125984 61.5649414,17.7553711 C61.8953467,17.5981437 62.2679016,17.5195312 62.6826172,17.5195312 C63.6168667,17.5195312 64.3915985,17.8180309 65.0068359,18.4150391 C65.6220734,19.0120473 65.9296875,19.7639929 65.9296875,20.6708984 C65.9296875,21.6188198 65.6311879,22.4038055 65.0341797,23.0258789 C64.4371715,23.6479523 63.6852259,23.9589844 62.7783203,23.9589844 C62.4091778,23.9589844 62.0639665,23.9077154 61.7426758,23.8051758 C61.4213851,23.7026362 61.1422538,23.5533864 60.9052734,23.3574219 Z M62.484375,18.9755859 C62.0332009,18.9755859 61.6617853,19.1419254 61.3701172,19.4746094 C61.0784491,19.8072933 60.9326172,20.2333958 60.9326172,20.7529297 C60.9326172,21.2724635 61.0784491,21.698566 61.3701172,22.03125 C61.6617853,22.363934 62.0332009,22.5302734 62.484375,22.5302734 C62.9355491,22.5302734 63.308104,22.3627946 63.6020508,22.027832 C63.8959976,21.6928694 64.0429688,21.2679062 64.0429688,20.7529297 C64.0429688,20.2333958 63.8971369,19.8072933 63.6054688,19.4746094 C63.3138006,19.1419254 62.9401064,18.9755859 62.484375,18.9755859 Z M70.6054688,18.9755859 C70.072263,18.9755859 69.633628,19.1499006 69.2895508,19.4985352 C68.9454735,19.8471697 68.7734375,20.2926405 68.7734375,20.8349609 C68.7734375,21.3818387 68.9454735,21.8341453 69.2895508,22.1918945 C69.633628,22.5496437 70.072263,22.7285156 70.6054688,22.7285156 C71.1386745,22.7285156 71.5784488,22.5496437 71.9248047,22.1918945 C72.2711606,21.8341453 72.4443359,21.3818387 72.4443359,20.8349609 C72.4443359,20.2926405 72.2722999,19.8471697 71.9282227,19.4985352 C71.5841454,19.1499006 71.1432319,18.9755859 70.6054688,18.9755859 Z M70.6054688,17.5332031 C71.7128962,17.5332031 72.6106736,17.8430959 73.2988281,18.4628906 C73.9869826,19.0826854 74.3310547,19.8779248 74.3310547,20.8486328 C74.3310547,21.8238981 73.9869826,22.6214162 73.2988281,23.2412109 C72.6106736,23.8610057 71.7128962,24.1708984 70.6054688,24.1708984 C69.5025987,24.1708984 68.6070998,23.8610057 67.9189453,23.2412109 C67.2307908,22.6214162 66.8867188,21.8238981 66.8867188,20.8486328 C66.8867188,19.8779248 67.2319301,19.0826854 67.9223633,18.4628906 C68.6127964,17.8430959 69.507156,17.5332031 70.6054688,17.5332031 Z M77.2021484,23.9042969 C77.0836583,23.9954432 76.9617519,24.0649412 76.8364258,24.112793 C76.7110996,24.1606448 76.5823574,24.1845703 76.4501953,24.1845703 C76.2542308,24.1845703 76.1163741,24.132162 76.0366211,24.0273438 C75.9568681,23.9225255 75.9169922,23.7265639 75.9169922,23.4394531 L75.9169922,22.5302734 C75.9169922,22.2294907 75.9671219,22.0164394 76.0673828,21.8911133 C76.1676437,21.7657871 76.3408191,21.703125 76.5869141,21.703125 C76.8557956,21.703125 77.0745434,21.8330065 77.2431641,22.0927734 C77.343425,22.2340502 77.427734,22.3388668 77.4960938,22.4072266 C77.7194022,22.6077484 77.9791652,22.7581375 78.2753906,22.8583984 C78.5716161,22.9586594 78.9088523,23.0087891 79.2871094,23.0087891 C79.615236,23.0087891 79.8772777,22.9449876 80.0732422,22.8173828 C80.2692067,22.689778 80.3671875,22.5234385 80.3671875,22.3183594 C80.3671875,21.9492169 79.8408256,21.6940111 78.7880859,21.5527344 C78.5556629,21.5253905 78.3733731,21.5003256 78.2412109,21.4775391 C77.4482382,21.3681635 76.8580749,21.1528336 76.4707031,20.831543 C76.0833314,20.5102523 75.8896484,20.0784532 75.8896484,19.5361328 C75.8896484,18.8935515 76.122068,18.3968117 76.5869141,18.0458984 C77.0517601,17.6949852 77.7148394,17.5195312 78.5761719,17.5195312 C78.8723973,17.5195312 79.1765935,17.5434568 79.4887695,17.5913086 C79.8009456,17.6391604 80.1210921,17.7132156 80.4492188,17.8134766 C80.5449224,17.6995437 80.6463211,17.6152346 80.753418,17.5605469 C80.8605149,17.5058591 80.9801426,17.4785156 81.1123047,17.4785156 C81.2991546,17.4785156 81.4415685,17.5366205 81.5395508,17.652832 C81.637533,17.7690435 81.6865234,17.9433582 81.6865234,18.1757812 L81.6865234,19.0166016 C81.6865234,19.2125661 81.6363937,19.3640945 81.5361328,19.4711914 C81.4358719,19.5782883 81.2945973,19.6318359 81.1123047,19.6318359 C80.9254548,19.6318359 80.6053083,19.4689144 80.1518555,19.1430664 C79.6984027,18.8172184 79.2438174,18.6542969 78.7880859,18.6542969 C78.4326154,18.6542969 78.156902,18.7124018 77.9609375,18.8286133 C77.764973,18.9448248 77.6669922,19.1054677 77.6669922,19.3105469 C77.6669922,19.6295589 78.0771443,19.8437495 78.8974609,19.953125 C79.1344413,19.9804689 79.3212884,20.0032551 79.4580078,20.0214844 C80.4879609,20.1718758 81.1954733,20.3963201 81.5805664,20.6948242 C81.9656595,20.9933283 82.1582031,21.4365205 82.1582031,22.0244141 C82.1582031,22.7125685 81.9041367,23.244627 81.3959961,23.6206055 C80.8878555,23.9965839 80.1666713,24.1845703 79.2324219,24.1845703 C78.8678367,24.1845703 78.5169288,24.1606448 78.1796875,24.112793 C77.8424462,24.0649412 77.5166031,23.9954432 77.2021484,23.9042969 Z M86.9365234,18.0664062 L89.0214844,18.0664062 C89.3359391,18.0664062 89.5592441,18.1233718 89.6914062,18.2373047 C89.8235684,18.3512375 89.8896484,18.5403633 89.8896484,18.8046875 C89.8896484,19.0735691 89.8224291,19.267252 89.6879883,19.3857422 C89.5535475,19.5042324 89.3313818,19.5634766 89.0214844,19.5634766 L86.9365234,19.5634766 L86.9365234,21.3134766 C86.9365234,21.8056665 87.011718,22.1429027 87.1621094,22.3251953 C87.3125008,22.5074879 87.576821,22.5986328 87.9550781,22.5986328 C88.3105487,22.5986328 88.7298153,22.4960948 89.2128906,22.2910156 C89.695966,22.0859365 90.0195304,21.9833984 90.1835938,21.9833984 C90.3704436,21.9833984 90.5310866,22.0574537 90.6655273,22.2055664 C90.7999681,22.3536791 90.8671875,22.532551 90.8671875,22.7421875 C90.8671875,23.0931007 90.5493196,23.4132473 89.9135742,23.7026367 C89.2778289,23.9920262 88.5566447,24.1367188 87.75,24.1367188 C87.2805966,24.1367188 86.8681658,24.0729173 86.5126953,23.9453125 C86.1572248,23.8177077 85.8769542,23.6354179 85.671875,23.3984375 C85.5214836,23.2161449 85.4143883,22.9973971 85.3505859,22.7421875 C85.2867835,22.4869779 85.2548828,22.0608754 85.2548828,21.4638672 L85.2548828,19.5634766 L84.6123047,19.5634766 C84.3024073,19.5634766 84.0825202,19.5042324 83.9526367,19.3857422 C83.8227533,19.267252 83.7578125,19.0735691 83.7578125,18.8046875 C83.7578125,18.5358059 83.8216139,18.3455409 83.9492188,18.2338867 C84.0768236,18.1222325 84.29785,18.0664062 84.6123047,18.0664062 L85.2548828,18.0664062 L85.2548828,16.4667969 C85.2548828,16.1523422 85.3198236,15.9313157 85.449707,15.8037109 C85.5795905,15.6761061 85.7949204,15.6123047 86.0957031,15.6123047 C86.3964859,15.6123047 86.6118158,15.6761061 86.7416992,15.8037109 C86.8715827,15.9313157 86.9365234,16.1523422 86.9365234,16.4667969 L86.9365234,18.0664062 Z" id="Readpost" fill="#202731" fill-rule="nonzero"></path>
                <g id="Group" transform="translate(105.000000, 20.000000) rotate(-180.000000) translate(-105.000000, -20.000000) translate(101.000000, 15.000000)" stroke="#202731" stroke-linecap="round" stroke-width="2">
                    <polyline id="Path" points="0 6 4 10 8 6"></polyline>
                    <path d="M4,9.26269531 L4,0.5" id="Path-2"></path>
                </g>
            </g>
        </g>
    </g>
</svg>