<?xml version="1.0" encoding="UTF-8"?>
<svg width="107px" height="40px" viewBox="0 0 107 40" version="1.1" xmlns="http://www.w3.org/2000/svg" xmlns:xlink="http://www.w3.org/1999/xlink">
    <!-- Generator: Sketch 53.2 (72643) - https://sketchapp.com -->
    <title>icn-archive</title>
    <desc>Created with Sketch.</desc>
    <g id="Page-1" stroke="none" stroke-width="1" fill="none" fill-rule="evenodd">
        <g id="Artboard" transform="translate(-143.000000, -118.000000)">
            <g id="icn-archive" transform="translate(143.000000, 118.000000)">
                <rect id="Rectangle" fill="#FF9C07" x="0" y="0" width="107" height="40" rx="20"></rect>
                <path d="M23.6425781,22.5029297 L23.7587891,22.5029297 C24.004884,22.5029297 24.1917311,22.5655918 24.3193359,22.690918 C24.4469407,22.8162441 24.5107422,22.9996733 24.5107422,23.2412109 C24.5107422,23.5100925 24.4435228,23.7037754 24.309082,23.8222656 C24.1746413,23.9407558 23.9524755,24 23.6425781,24 L21.5849609,24 C21.2705062,24 21.0472012,23.9418951 20.9150391,23.8256836 C20.7828769,23.7094721 20.7167969,23.5146498 20.7167969,23.2412109 C20.7167969,22.9768867 20.7828769,22.787761 20.9150391,22.6738281 C21.0472012,22.5598953 21.2705062,22.5029297 21.5849609,22.5029297 L21.8242188,22.5029297 L21.5439453,21.703125 L18.5908203,21.703125 L18.296875,22.5029297 L18.5361328,22.5029297 C18.8460302,22.5029297 19.0681959,22.5610346 19.2026367,22.6772461 C19.3370775,22.7934576 19.4042969,22.981444 19.4042969,23.2412109 C19.4042969,23.5100925 19.3370775,23.7037754 19.2026367,23.8222656 C19.0681959,23.9407558 18.8460302,24 18.5361328,24 L16.7724609,24 C16.4580062,24 16.2347012,23.9407558 16.1025391,23.8222656 C15.9703769,23.7037754 15.9042969,23.5100925 15.9042969,23.2412109 C15.9042969,22.9996733 15.9680983,22.8162441 16.0957031,22.690918 C16.2233079,22.5655918 16.410155,22.5029297 16.65625,22.5029297 L16.7724609,22.5029297 L18.6044922,17.4033203 L18.0576172,17.4033203 C17.7477198,17.4033203 17.5255541,17.3440761 17.3911133,17.2255859 C17.2566725,17.1070958 17.1894531,16.9156914 17.1894531,16.6513672 C17.1894531,16.3824856 17.2566725,16.1888027 17.3911133,16.0703125 C17.5255541,15.9518223 17.7477198,15.8925781 18.0576172,15.8925781 L20.6210938,15.8925781 C21.0266947,15.8925781 21.3115226,16.1113259 21.4755859,16.5488281 L21.4755859,16.5693359 L23.6425781,22.5029297 Z M20.0605469,17.4033203 L19.0693359,20.2880859 L21.0517578,20.2880859 L20.0605469,17.4033203 Z M28.2910156,20.2880859 L28.2910156,22.5029297 L29.9042969,22.5029297 C30.2141943,22.5029297 30.4340814,22.5598953 30.5639648,22.6738281 C30.6938483,22.787761 30.7587891,22.9768867 30.7587891,23.2412109 C30.7587891,23.5100925 30.6938483,23.7037754 30.5639648,23.8222656 C30.4340814,23.9407558 30.2141943,24 29.9042969,24 L26.0830078,24 C25.7685531,24 25.5452481,23.9407558 25.4130859,23.8222656 C25.2809238,23.7037754 25.2148438,23.5100925 25.2148438,23.2412109 C25.2148438,22.9768867 25.2797845,22.787761 25.409668,22.6738281 C25.5395514,22.5598953 25.7639958,22.5029297 26.0830078,22.5029297 L26.6025391,22.5029297 L26.6025391,19.1806641 L26.3085938,19.1806641 C25.9986964,19.1806641 25.7788092,19.1225592 25.6489258,19.0063477 C25.5190423,18.8901361 25.4541016,18.6975925 25.4541016,18.4287109 C25.4541016,18.1598294 25.5167637,17.968425 25.6420898,17.8544922 C25.767416,17.7405593 25.9895817,17.6835938 26.3085938,17.6835938 L27.7646484,17.6835938 C27.8876959,17.6835938 27.9833981,17.7097979 28.0517578,17.762207 C28.1201175,17.8146161 28.1542969,17.8863928 28.1542969,17.9775391 L28.1542969,18.9892578 C28.6510442,18.456052 29.1147439,18.075522 29.5454102,17.8476562 C29.9760764,17.6197905 30.4397762,17.5058594 30.9365234,17.5058594 C31.3876976,17.5058594 31.7454414,17.6072581 32.0097656,17.8100586 C32.2740899,18.0128591 32.40625,18.2851545 32.40625,18.6269531 C32.40625,18.8912774 32.3151051,19.1088859 32.1328125,19.2797852 C31.9505199,19.4506844 31.7158217,19.5361328 31.4287109,19.5361328 C31.2236318,19.5361328 30.9809584,19.4609383 30.7006836,19.3105469 C30.4204088,19.1601555 30.2255865,19.0849609 30.1162109,19.0849609 C29.8974598,19.0849609 29.6399754,19.1829417 29.34375,19.3789062 C29.0475246,19.5748708 28.6966166,19.8779276 28.2910156,20.2880859 Z M39.0302734,18.0527344 C39.0849612,17.8749991 39.1704096,17.7416997 39.2866211,17.652832 C39.4028326,17.5639644 39.5520824,17.5195312 39.734375,17.5195312 C39.98047,17.5195312 40.155924,17.5935865 40.2607422,17.7416992 C40.3655604,17.8898119 40.4179688,18.146157 40.4179688,18.5107422 L40.4179688,19.6318359 C40.4179688,19.9098321 40.3610032,20.1149082 40.2470703,20.2470703 C40.1331375,20.3792324 39.9576835,20.4453125 39.7207031,20.4453125 C39.5520825,20.4453125 39.4108079,20.4065759 39.296875,20.3291016 C39.1829421,20.2516272 39.0621751,20.1035167 38.9345703,19.8847656 C38.7522777,19.5748682 38.5130223,19.3458666 38.2167969,19.1977539 C37.9205714,19.0496412 37.5582704,18.9755859 37.1298828,18.9755859 C36.596677,18.9755859 36.1603207,19.1499006 35.8208008,19.4985352 C35.4812809,19.8471697 35.3115234,20.2926405 35.3115234,20.8349609 C35.3115234,21.4046252 35.4869774,21.8626285 35.8378906,22.2089844 C36.1888038,22.5553403 36.6604788,22.7285156 37.2529297,22.7285156 C37.7906928,22.7285156 38.3250299,22.5792658 38.855957,22.2807617 C39.3868842,21.9822576 39.7115879,21.8330078 39.8300781,21.8330078 C39.9986988,21.8330078 40.1388341,21.8979486 40.2504883,22.027832 C40.3621425,22.1577155 40.4179688,22.320637 40.4179688,22.5166016 C40.4179688,22.9449891 40.093265,23.3277978 39.4438477,23.6650391 C38.7944303,24.0022803 38.0231164,24.1708984 37.1298828,24.1708984 C36.0270127,24.1708984 35.1303745,23.8610057 34.4399414,23.2412109 C33.7495083,22.6214162 33.4042969,21.8238981 33.4042969,20.8486328 C33.4042969,19.8961541 33.7460903,19.1031933 34.4296875,18.4697266 C35.1132847,17.8362599 35.9746042,17.5195312 37.0136719,17.5195312 C37.3645851,17.5195312 37.7063785,17.5628251 38.0390625,17.6494141 C38.3717465,17.736003 38.7021468,17.8704418 39.0302734,18.0527344 Z M44.3007812,18.3740234 C44.4602873,18.0960273 44.6858709,17.8841153 44.9775391,17.7382812 C45.2692072,17.5924472 45.6178365,17.5195312 46.0234375,17.5195312 C46.7434932,17.5195312 47.2983379,17.7291646 47.6879883,18.1484375 C48.0776387,18.5677104 48.2724609,19.1692669 48.2724609,19.953125 L48.2724609,22.5029297 L48.3886719,22.5029297 C48.6302095,22.5029297 48.8136387,22.5655918 48.9389648,22.690918 C49.064291,22.8162441 49.1269531,22.9996733 49.1269531,23.2412109 C49.1269531,23.5100925 49.0620124,23.7037754 48.9321289,23.8222656 C48.8022454,23.9407558 48.5823583,24 48.2724609,24 L46.5771484,24 C46.2718084,24 46.0541999,23.9407558 45.9243164,23.8222656 C45.7944329,23.7037754 45.7294922,23.5100925 45.7294922,23.2412109 C45.7294922,22.995116 45.791015,22.8105475 45.9140625,22.6875 C46.03711,22.5644525 46.2216785,22.5029297 46.4677734,22.5029297 L46.5771484,22.5029297 L46.5771484,20.5136719 C46.5771484,19.9303356 46.5053718,19.52588 46.3618164,19.300293 C46.218261,19.0747059 45.973309,18.9619141 45.6269531,18.9619141 C45.262368,18.9619141 44.9501966,19.1088852 44.6904297,19.402832 C44.4306628,19.6967788 44.3007812,20.0670551 44.3007812,20.5136719 L44.3007812,22.5029297 L44.4101562,22.5029297 C44.6562512,22.5029297 44.841959,22.5655918 44.9672852,22.690918 C45.0926113,22.8162441 45.1552734,22.9996733 45.1552734,23.2412109 C45.1552734,23.5100925 45.0891934,23.7037754 44.9570312,23.8222656 C44.8248691,23.9407558 44.6061213,24 44.3007812,24 L42.6054688,24 C42.2910141,24 42.0699876,23.9418951 41.9423828,23.8256836 C41.814778,23.7094721 41.7509766,23.5146498 41.7509766,23.2412109 C41.7509766,22.9996733 41.8136387,22.8162441 41.9389648,22.690918 C42.064291,22.5655918 42.2477201,22.5029297 42.4892578,22.5029297 L42.6054688,22.5029297 L42.6054688,16.5693359 L42.4892578,16.5693359 C42.2477201,16.5693359 42.0620124,16.5043952 41.9321289,16.3745117 C41.8022454,16.2446283 41.7373047,16.0566419 41.7373047,15.8105469 C41.7373047,15.5416653 41.8033848,15.3479824 41.9355469,15.2294922 C42.067709,15.111002 42.2910141,15.0517578 42.6054688,15.0517578 L43.890625,15.0517578 C44.0455737,15.0517578 44.152669,15.0836585 44.2119141,15.1474609 C44.2711592,15.2112633 44.3007812,15.3297517 44.3007812,15.5029297 L44.3007812,18.3740234 Z M54.7597656,22.5029297 L56.2294922,22.5029297 C56.5439469,22.5029297 56.7672519,22.5598953 56.8994141,22.6738281 C57.0315762,22.787761 57.0976562,22.9768867 57.0976562,23.2412109 C57.0976562,23.5100925 57.0304369,23.7037754 56.8959961,23.8222656 C56.7615553,23.9407558 56.5393896,24 56.2294922,24 L51.6083984,24 C51.2985011,24 51.0763353,23.9407558 50.9418945,23.8222656 C50.8074538,23.7037754 50.7402344,23.5100925 50.7402344,23.2412109 C50.7402344,22.9768867 50.8051751,22.787761 50.9350586,22.6738281 C51.0649421,22.5598953 51.2893864,22.5029297 51.6083984,22.5029297 L53.078125,22.5029297 L53.078125,19.1806641 L52.3056641,19.1806641 C52.000324,19.1806641 51.7815762,19.1225592 51.6494141,19.0063477 C51.5172519,18.8901361 51.4511719,18.6975925 51.4511719,18.4287109 C51.4511719,18.1598294 51.5149733,17.968425 51.6425781,17.8544922 C51.7701829,17.7405593 51.9912094,17.6835938 52.3056641,17.6835938 L54.3632812,17.6835938 C54.4908861,17.6835938 54.5888668,17.7097979 54.6572266,17.762207 C54.7255863,17.8146161 54.7597656,17.8863928 54.7597656,17.9775391 L54.7597656,22.5029297 Z M53.7753906,14.59375 C54.1080746,14.59375 54.329101,14.6575514 54.4384766,14.7851562 C54.5478521,14.9127611 54.6025391,15.2180965 54.6025391,15.7011719 C54.6025391,16.1660179 54.5535487,16.4542638 54.4555664,16.565918 C54.3575841,16.6775722 54.1263039,16.7333984 53.7617188,16.7333984 C53.4062482,16.7333984 53.1772466,16.6809901 53.074707,16.5761719 C52.9721675,16.4713536 52.9208984,16.2617203 52.9208984,15.9472656 C52.9208984,15.3639294 52.9733068,14.9925138 53.078125,14.8330078 C53.1829432,14.6735018 53.4153628,14.59375 53.7753906,14.59375 Z M61.0009766,19.1806641 L62.2314453,22.0927734 L63.5234375,19.1806641 L63.4140625,19.1806641 C63.1679675,19.1806641 62.9799811,19.1168626 62.8500977,18.9892578 C62.7202142,18.861653 62.6552734,18.6748059 62.6552734,18.4287109 C62.6552734,18.1598294 62.7202142,17.968425 62.8500977,17.8544922 C62.9799811,17.7405593 63.2044255,17.6835938 63.5234375,17.6835938 L65.1298828,17.6835938 C65.4488948,17.6835938 65.6733392,17.7416986 65.8032227,17.8579102 C65.9331061,17.9741217 65.9980469,18.1643867 65.9980469,18.4287109 C65.9980469,18.6748059 65.9342454,18.861653 65.8066406,18.9892578 C65.6790358,19.1168626 65.4921887,19.1806641 65.2460938,19.1806641 L65.1298828,19.1806641 L63.0996094,23.4941406 C62.949218,23.804038 62.8136399,23.994303 62.6928711,24.0649414 C62.5721023,24.1355798 62.3863945,24.1708984 62.1357422,24.1708984 C61.6800107,24.1708984 61.3723966,23.9794941 61.2128906,23.5966797 L61.171875,23.4941406 L59.2646484,19.1806641 L59.1552734,19.1806641 C58.9091785,19.1806641 58.7211921,19.1168626 58.5913086,18.9892578 C58.4614251,18.861653 58.3964844,18.6748059 58.3964844,18.4287109 C58.3964844,18.1598294 58.4625644,17.968425 58.5947266,17.8544922 C58.7268887,17.7405593 58.9501937,17.6835938 59.2646484,17.6835938 L61.0009766,17.6835938 C61.3154313,17.6835938 61.5387363,17.7416986 61.6708984,17.8579102 C61.8030606,17.9741217 61.8691406,18.1643867 61.8691406,18.4287109 C61.8691406,18.6748059 61.8041999,18.861653 61.6743164,18.9892578 C61.5444329,19.1168626 61.3587252,19.1806641 61.1171875,19.1806641 L61.0009766,19.1806641 Z M68.7460938,21.2451172 C68.8645839,21.7509791 69.0935855,22.1292305 69.4331055,22.3798828 C69.7726254,22.6305351 70.2249321,22.7558594 70.7900391,22.7558594 C71.3551461,22.7558594 71.9134087,22.6180027 72.4648438,22.3422852 C73.0162788,22.0665676 73.3489578,21.9287109 73.4628906,21.9287109 C73.6315113,21.9287109 73.769368,21.9913731 73.8764648,22.1166992 C73.9835617,22.2420254 74.0371094,22.4026683 74.0371094,22.5986328 C74.0371094,23.0270204 73.7203808,23.3961573 73.0869141,23.7060547 C72.4534474,24.0159521 71.669601,24.1708984 70.7353516,24.1708984 C69.6324815,24.1708984 68.7358433,23.8610057 68.0454102,23.2412109 C67.354977,22.6214162 67.0097656,21.8238981 67.0097656,20.8486328 C67.0097656,19.8779248 67.354977,19.0826854 68.0454102,18.4628906 C68.7358433,17.8430959 69.6324815,17.5332031 70.7353516,17.5332031 C71.7197315,17.5332031 72.5354785,17.8237276 73.1826172,18.4047852 C73.8297558,18.9858427 74.1533203,19.6979125 74.1533203,20.5410156 C74.1533203,20.8098972 74.0883796,20.9944656 73.9584961,21.0947266 C73.8286126,21.1949875 73.5608744,21.2451172 73.1552734,21.2451172 L68.7460938,21.2451172 Z M72.4306641,20.1787109 C72.3531897,19.7548807 72.1538102,19.426759 71.8325195,19.1943359 C71.5112289,18.9619129 71.0931015,18.8457031 70.578125,18.8457031 C70.0813777,18.8457031 69.6814794,18.9562163 69.378418,19.1772461 C69.0753566,19.3982758 68.8645839,19.7320941 68.7460938,20.1787109 L72.4306641,20.1787109 Z" id="Archive" fill="#202731" fill-rule="nonzero"></path>
                <g id="Group" transform="translate(83.000000, 15.000000)" stroke="#202731" stroke-linecap="round" stroke-width="2">
                    <polyline id="Path" points="0 6 4 10 8 6"></polyline>
                    <path d="M4,9.26269531 L4,0.5" id="Path-2"></path>
                </g>
            </g>
        </g>
    </g>
</svg>